<svg width="45" height="46" viewBox="0 0 45 46" fill="none" xmlns="http://www.w3.org/2000/svg">
<circle cx="22.5" cy="23" r="22.5" fill="#DDFFF9"/>
<path fill-rule="evenodd" clip-rule="evenodd" d="M30.0591 15.442C30.414 15.0961 30.8931 14.9014 31.3928 14.9C31.8925 14.8987 32.3727 15.0908 32.7295 15.4347C33.0864 15.7787 33.2912 16.247 33.2997 16.7382C33.3082 17.2295 33.1197 17.7043 32.775 18.0601L22.6516 30.5023C22.4776 30.6866 22.2677 30.8345 22.0342 30.9371C21.8008 31.0397 21.5487 31.095 21.293 31.0997C21.0373 31.1044 20.7833 31.0583 20.5462 30.9642C20.3091 30.8701 20.0936 30.73 19.9128 30.5522L13.2053 23.9546C13.0185 23.7834 12.8686 23.5769 12.7646 23.3475C12.6607 23.1181 12.6048 22.8705 12.6003 22.6194C12.5958 22.3683 12.6427 22.1189 12.7384 21.886C12.8341 21.6532 12.9764 21.4416 13.157 21.2641C13.3376 21.0865 13.5528 20.9465 13.7896 20.8524C14.0264 20.7584 14.2801 20.7122 14.5355 20.7166C14.7908 20.721 15.0427 20.776 15.276 20.8782C15.5093 20.9804 15.7193 21.1278 15.8934 21.3115L21.2036 26.5303L30.0109 15.4968C30.0266 15.4775 30.0435 15.4592 30.0616 15.442H30.0591Z" fill="#00ADB5"/>
</svg>
